<?xml version="1.0" standalone="no"?>
<!DOCTYPE svg PUBLIC "-//W3C//DTD SVG 20010904//EN"
 "http://www.w3.org/TR/2001/REC-SVG-20010904/DTD/svg10.dtd">
<svg version="1.0" xmlns="http://www.w3.org/2000/svg"
 width="285.000000pt" height="285.000000pt" viewBox="0 0 285.000000 285.000000"
 preserveAspectRatio="xMidYMid meet">
<metadata>
Created by potrace 1.14, written by Peter Selinger 2001-2017
</metadata>
<g transform="translate(0.000000,285.000000) scale(0.100000,-0.100000)"
fill="#000000" stroke="none">
<path d="M1289 2846 c-2 -2 -26 -6 -54 -10 -46 -5 -61 -8 -120 -20 -11 -2 -38
-9 -60 -15 -22 -6 -43 -10 -48 -11 -4 0 -21 -7 -37 -15 -17 -9 -30 -13 -30
-10 0 3 -10 0 -22 -7 -13 -7 -25 -13 -28 -13 -3 -1 -22 -9 -44 -18 -21 -9 -42
-17 -47 -17 -5 0 -9 -5 -9 -11 0 -5 -4 -7 -10 -4 -5 3 -10 1 -10 -5 0 -6 -4
-8 -10 -5 -5 3 -10 1 -10 -4 0 -6 -4 -11 -10 -11 -13 0 -114 -62 -118 -72 -2
-4 -10 -8 -18 -8 -8 0 -14 -3 -14 -7 0 -5 -17 -19 -38 -33 -65 -43 -235 -223
-301 -319 -108 -158 -188 -350 -226 -542 -30 -151 -26 -414 9 -572 3 -15 8
-39 11 -54 3 -14 10 -34 16 -45 5 -10 7 -18 3 -18 -3 0 -1 -7 6 -15 7 -8 9
-15 5 -15 -4 0 -2 -7 5 -15 7 -8 9 -15 6 -15 -4 0 0 -12 8 -27 14 -27 27 -62
27 -73 0 -3 7 -12 15 -21 8 -9 11 -19 7 -22 -3 -4 -1 -7 6 -7 7 0 9 -4 6 -10
-3 -5 -1 -10 5 -10 6 0 8 -4 5 -10 -3 -5 -2 -10 3 -10 4 0 14 -16 22 -35 8
-19 17 -35 22 -35 4 0 8 -7 8 -15 0 -8 5 -15 10 -15 6 0 10 -7 10 -15 0 -8 5
-15 10 -15 6 0 10 -5 10 -11 0 -6 6 -16 12 -23 7 -7 24 -28 38 -47 41 -55 180
-192 250 -246 92 -70 152 -106 260 -157 199 -92 362 -128 585 -129 165 -1 224
4 337 29 15 3 29 5 30 4 2 -1 17 4 33 10 17 7 38 13 48 15 22 5 142 52 179 71
15 8 30 13 32 12 2 -2 12 4 22 13 11 9 34 22 52 30 17 8 32 17 32 21 0 5 7 8
15 8 8 0 15 5 15 10 0 6 6 10 13 10 6 0 24 10 39 23 15 12 42 33 60 47 53 39
199 190 251 258 139 183 238 420 270 645 13 94 15 329 2 412 -4 28 -9 59 -10
70 -10 67 -97 331 -114 345 -3 3 -19 31 -36 63 -37 72 -42 80 -85 142 -51 73
-56 80 -165 190 -261 263 -591 402 -976 411 -86 2 -158 2 -160 0z"/>
</g>
</svg>
